<svg xmlns="http://www.w3.org/2000/svg" version="1.1" xmlns:xlink="http://www.w3.org/1999/xlink" xmlns:svgjs="http://svgjs.com/svgjs" width="512" height="512" x="0" y="0" viewBox="0 0 64 64" style="enable-background:new 0 0 512 512" xml:space="preserve" class=""><g><g data-name="shop 路 shopping 路 market 路 ecommerce 路 online"><path fill="#006df0" d="M8 29h48v28H8z" data-original="#006df0" class=""></path><path fill="#005ece" d="M42 57h14V43a14 14 0 0 1-14 14z" data-original="#005ece" class=""></path><path fill="#ffd422" d="m52 29-4-8h-7l3 8zM35 21h-6l-1 8h8z" data-original="#ffd422" class=""></path><path fill="#bd0022" d="M52 31a4 4 0 0 0 8 0v-2h-8z" data-original="#bd0022" class=""></path><path fill="#ed1c24" d="M16 21H9l-5 8h8zM36 29h8l-3-8h-6z" data-original="#ed1c24" class=""></path><path fill="#ffd422" d="M16 29h4l3-8h-7l-4 8z" data-original="#ffd422" class=""></path><path fill="#bd0022" d="M12 31v-2H4v2a4 4 0 0 0 8 0z" data-original="#bd0022" class=""></path><path fill="#ed1c24" d="m60 29-5-8h-7l4 8zM28 29l1-8h-6l-3 8z" data-original="#ed1c24" class=""></path><path fill="#ebbf00" d="M16 29h-4v2a4 4 0 0 0 8 0v-2z" data-original="#ebbf00" class=""></path><path fill="#bd0022" d="M20 29v2a4 4 0 0 0 8 0v-2z" data-original="#bd0022" class=""></path><path fill="#ebbf00" d="M28 29v2a4 4 0 0 0 8 0v-2z" data-original="#ebbf00" class=""></path><path fill="#bd0022" d="M36 29v2a4 4 0 0 0 8 0v-2z" data-original="#bd0022" class=""></path><path fill="#ebbf00" d="M44 29v2a4 4 0 0 0 8 0v-2zM20 41a2 2 0 0 0-2 2v14h14V41z" data-original="#ebbf00" class=""></path><path fill="#ffcd00" d="M44 41H32v16h14V43a2 2 0 0 0-2-2z" data-original="#ffcd00" class=""></path><path fill="#ebbf00" d="M32 57h14V43a14 14 0 0 1-14 14z" data-original="#ebbf00" class=""></path><path fill="#ddb200" d="M18 57h14V43a14 14 0 0 1-14 14z" data-original="#ddb200" class=""></path><rect width="34" height="14" x="15" y="3" fill="#7ed63e" rx="2" data-original="#7ed63e" class=""></rect><path fill="#6ebb36" d="M37 17h10a2.006 2.006 0 0 0 2-2V5a12.035 12.035 0 0 1-12 12z" data-original="#6ebb36" class=""></path><path fill="#006df0" d="M35 21h6v-4H23v4h6z" data-original="#006df0" class=""></path><path fill="#58595b" d="M59 57H5a2 2 0 0 0-2 2v2h58v-2a2 2 0 0 0-2-2z" data-original="#58595b" class=""></path><path fill="#005ece" d="M23 17h18v2H23z" data-original="#005ece" class=""></path><path fill="#6d6e71" d="M29 48a1 1 0 0 0-1 1v1a1 1 0 0 0 2 0v-1a1 1 0 0 0-1-1zM35 48a1 1 0 0 0-1 1v1a1 1 0 0 0 2 0v-1a1 1 0 0 0-1-1z" data-original="#6d6e71" class=""></path><g fill="#f1f2f2"><path d="M25 12a3 3 0 0 0-3-3 1 1 0 1 1 1-1 1 1 0 0 0 2 0 3 3 0 1 0-3 3 1 1 0 1 1-1 1 1 1 0 0 0-2 0 3 3 0 0 0 6 0zM36 15a3 3 0 0 0 3-3V8a3 3 0 0 0-6 0v4a3 3 0 0 0 3 3zm-1-7a1 1 0 0 1 2 0v4a1 1 0 0 1-2 0zM27 15a1 1 0 0 0 1-1v-3h2v3a1 1 0 0 0 2 0V6a1 1 0 0 0-2 0v3h-2V6a1 1 0 0 0-2 0v8a1 1 0 0 0 1 1zM41 15a1 1 0 0 0 1-1v-3h1a3 3 0 0 0 0-6h-2a1 1 0 0 0-1 1v8a1 1 0 0 0 1 1zm1-8h1a1 1 0 0 1 0 2h-1z" fill="#f1f2f2" data-original="#f1f2f2" class=""></path></g></g></g></svg>